<mxfile host="app.diagrams.net" modified="2024-03-05T23:03:03.690Z" agent="Mozilla/5.0 (Windows NT 10.0; Win64; x64) AppleWebKit/537.36 (KHTML, like Gecko) Chrome/121.0.0.0 Safari/537.36" etag="gChx0NDeriNP68Ka6U-I" version="23.1.2" type="github">
  <diagram name="Strona-1" id="EeAVUHvUSctApOIpRVnd">
    <mxGraphModel dx="1383" dy="755" grid="1" gridSize="10" guides="1" tooltips="1" connect="1" arrows="1" fold="1" page="1" pageScale="1" pageWidth="827" pageHeight="1169" math="0" shadow="0">
      <root>
        <mxCell id="0" />
        <mxCell id="1" parent="0" />
        <mxCell id="C3NNI_HML-tkmLwJej4Z-33" value="" style="shape=table;startSize=0;container=1;collapsible=0;childLayout=tableLayout;fontSize=16;fillColor=none;" vertex="1" parent="1">
          <mxGeometry x="310" y="100" width="150" height="122.5" as="geometry" />
        </mxCell>
        <mxCell id="C3NNI_HML-tkmLwJej4Z-34" value="" style="shape=tableRow;horizontal=0;startSize=0;swimlaneHead=0;swimlaneBody=0;strokeColor=inherit;top=0;left=0;bottom=0;right=0;collapsible=0;dropTarget=0;fillColor=none;points=[[0,0.5],[1,0.5]];portConstraint=eastwest;fontSize=16;" vertex="1" parent="C3NNI_HML-tkmLwJej4Z-33">
          <mxGeometry width="150" height="61" as="geometry" />
        </mxCell>
        <mxCell id="C3NNI_HML-tkmLwJej4Z-35" value="" style="shape=partialRectangle;html=1;whiteSpace=wrap;connectable=0;strokeColor=inherit;overflow=hidden;fillColor=none;top=0;left=0;bottom=0;right=0;pointerEvents=1;fontSize=16;" vertex="1" parent="C3NNI_HML-tkmLwJej4Z-34">
          <mxGeometry width="75" height="61" as="geometry">
            <mxRectangle width="75" height="61" as="alternateBounds" />
          </mxGeometry>
        </mxCell>
        <mxCell id="C3NNI_HML-tkmLwJej4Z-36" value="" style="shape=partialRectangle;html=1;whiteSpace=wrap;connectable=0;strokeColor=inherit;overflow=hidden;fillColor=none;top=0;left=0;bottom=0;right=0;pointerEvents=1;fontSize=16;" vertex="1" parent="C3NNI_HML-tkmLwJej4Z-34">
          <mxGeometry x="75" width="75" height="61" as="geometry">
            <mxRectangle width="75" height="61" as="alternateBounds" />
          </mxGeometry>
        </mxCell>
        <mxCell id="C3NNI_HML-tkmLwJej4Z-38" value="" style="shape=tableRow;horizontal=0;startSize=0;swimlaneHead=0;swimlaneBody=0;strokeColor=inherit;top=0;left=0;bottom=0;right=0;collapsible=0;dropTarget=0;fillColor=none;points=[[0,0.5],[1,0.5]];portConstraint=eastwest;fontSize=16;" vertex="1" parent="C3NNI_HML-tkmLwJej4Z-33">
          <mxGeometry y="61" width="150" height="62" as="geometry" />
        </mxCell>
        <mxCell id="C3NNI_HML-tkmLwJej4Z-39" value="" style="shape=partialRectangle;html=1;whiteSpace=wrap;connectable=0;strokeColor=inherit;overflow=hidden;fillColor=none;top=0;left=0;bottom=0;right=0;pointerEvents=1;fontSize=16;" vertex="1" parent="C3NNI_HML-tkmLwJej4Z-38">
          <mxGeometry width="75" height="62" as="geometry">
            <mxRectangle width="75" height="62" as="alternateBounds" />
          </mxGeometry>
        </mxCell>
        <mxCell id="C3NNI_HML-tkmLwJej4Z-40" value="" style="shape=partialRectangle;html=1;whiteSpace=wrap;connectable=0;strokeColor=inherit;overflow=hidden;fillColor=none;top=0;left=0;bottom=0;right=0;pointerEvents=1;fontSize=16;" vertex="1" parent="C3NNI_HML-tkmLwJej4Z-38">
          <mxGeometry x="75" width="75" height="62" as="geometry">
            <mxRectangle width="75" height="62" as="alternateBounds" />
          </mxGeometry>
        </mxCell>
        <mxCell id="RKdK0y8snVfrUmOb75B6-4" value="" style="sketch=0;pointerEvents=1;shadow=0;dashed=0;html=1;strokeColor=none;fillColor=#434445;aspect=fixed;labelPosition=center;verticalLabelPosition=bottom;verticalAlign=top;align=center;outlineConnect=0;shape=mxgraph.vvd.networking;spacing=2;" parent="1" vertex="1">
          <mxGeometry x="720" y="140" width="50" height="50" as="geometry" />
        </mxCell>
        <mxCell id="RKdK0y8snVfrUmOb75B6-5" value="" style="sketch=0;pointerEvents=1;shadow=0;dashed=0;html=1;strokeColor=none;fillColor=#434445;aspect=fixed;labelPosition=center;verticalLabelPosition=bottom;verticalAlign=top;align=center;outlineConnect=0;shape=mxgraph.vvd.physical_upstream_router;spacing=2;" parent="1" vertex="1">
          <mxGeometry x="600" y="140" width="50" height="50" as="geometry" />
        </mxCell>
        <mxCell id="RKdK0y8snVfrUmOb75B6-6" value="UPC router + WiFi 2.4, 5" style="text;html=1;align=center;verticalAlign=middle;resizable=0;points=[];autosize=1;fillColor=#f5f5f5;fontColor=#333333;strokeColor=#666666;spacing=2;" parent="1" vertex="1">
          <mxGeometry x="550" y="90" width="150" height="30" as="geometry" />
        </mxCell>
        <mxCell id="RKdK0y8snVfrUmOb75B6-7" value="" style="sketch=0;pointerEvents=1;shadow=0;dashed=0;html=1;strokeColor=none;fillColor=#434445;aspect=fixed;labelPosition=center;verticalLabelPosition=bottom;verticalAlign=top;align=center;outlineConnect=0;shape=mxgraph.vvd.wi_fi;spacing=2;" parent="1" vertex="1">
          <mxGeometry x="640" y="120" width="30" height="30" as="geometry" />
        </mxCell>
        <mxCell id="RKdK0y8snVfrUmOb75B6-10" value="" style="endArrow=none;html=1;rounded=0;spacing=2;" parent="1" source="RKdK0y8snVfrUmOb75B6-4" target="RKdK0y8snVfrUmOb75B6-5" edge="1">
          <mxGeometry width="50" height="50" relative="1" as="geometry">
            <mxPoint x="670" y="190" as="sourcePoint" />
            <mxPoint x="500" y="280" as="targetPoint" />
          </mxGeometry>
        </mxCell>
        <mxCell id="RKdK0y8snVfrUmOb75B6-11" value="" style="endArrow=none;html=1;rounded=0;" parent="1" target="RKdK0y8snVfrUmOb75B6-5" edge="1">
          <mxGeometry width="50" height="50" relative="1" as="geometry">
            <mxPoint x="530" y="165" as="sourcePoint" />
            <mxPoint x="530" y="220" as="targetPoint" />
          </mxGeometry>
        </mxCell>
        <mxCell id="RKdK0y8snVfrUmOb75B6-12" value="Work1" style="sketch=0;pointerEvents=1;shadow=0;dashed=0;html=1;strokeColor=none;fillColor=#434445;aspect=fixed;labelPosition=center;verticalLabelPosition=bottom;verticalAlign=top;align=center;outlineConnect=0;shape=mxgraph.vvd.laptop;" parent="1" vertex="1">
          <mxGeometry x="580" y="230" width="50" height="36" as="geometry" />
        </mxCell>
        <mxCell id="RKdK0y8snVfrUmOb75B6-13" value="Work2" style="sketch=0;pointerEvents=1;shadow=0;dashed=0;html=1;strokeColor=none;fillColor=#434445;aspect=fixed;labelPosition=center;verticalLabelPosition=bottom;verticalAlign=top;align=center;outlineConnect=0;shape=mxgraph.vvd.laptop;" parent="1" vertex="1">
          <mxGeometry x="630" y="230" width="50" height="36" as="geometry" />
        </mxCell>
        <mxCell id="RKdK0y8snVfrUmOb75B6-14" value="" style="endArrow=none;html=1;rounded=0;" parent="1" source="RKdK0y8snVfrUmOb75B6-12" target="RKdK0y8snVfrUmOb75B6-5" edge="1">
          <mxGeometry width="50" height="50" relative="1" as="geometry">
            <mxPoint x="480" y="270" as="sourcePoint" />
            <mxPoint x="530" y="220" as="targetPoint" />
          </mxGeometry>
        </mxCell>
        <mxCell id="RKdK0y8snVfrUmOb75B6-15" value="" style="endArrow=none;html=1;rounded=0;" parent="1" source="RKdK0y8snVfrUmOb75B6-13" target="RKdK0y8snVfrUmOb75B6-5" edge="1">
          <mxGeometry width="50" height="50" relative="1" as="geometry">
            <mxPoint x="480" y="270" as="sourcePoint" />
            <mxPoint x="530" y="220" as="targetPoint" />
          </mxGeometry>
        </mxCell>
        <mxCell id="C3NNI_HML-tkmLwJej4Z-1" value="HomeLab&lt;br&gt;" style="sketch=0;pointerEvents=1;shadow=0;dashed=0;html=1;strokeColor=none;fillColor=#434445;aspect=fixed;labelPosition=center;verticalLabelPosition=bottom;verticalAlign=top;align=center;outlineConnect=0;shape=mxgraph.vvd.machine;" vertex="1" parent="1">
          <mxGeometry x="510" y="140" width="20.5" height="50" as="geometry" />
        </mxCell>
        <mxCell id="C3NNI_HML-tkmLwJej4Z-2" value="" style="sketch=0;pointerEvents=1;shadow=0;dashed=0;html=1;strokeColor=none;fillColor=#434445;aspect=fixed;labelPosition=center;verticalLabelPosition=bottom;verticalAlign=top;align=center;outlineConnect=0;shape=mxgraph.vvd.wi_fi;" vertex="1" parent="1">
          <mxGeometry x="454.5" y="400" width="30" height="30" as="geometry" />
        </mxCell>
        <mxCell id="C3NNI_HML-tkmLwJej4Z-6" value="MediaEnd" style="sketch=0;pointerEvents=1;shadow=0;dashed=0;html=1;strokeColor=none;fillColor=#434445;aspect=fixed;labelPosition=center;verticalLabelPosition=bottom;verticalAlign=top;align=center;outlineConnect=0;shape=mxgraph.vvd.machine;" vertex="1" parent="1">
          <mxGeometry x="515" y="470" width="20.5" height="50" as="geometry" />
        </mxCell>
        <mxCell id="C3NNI_HML-tkmLwJej4Z-7" value="" style="endArrow=none;html=1;rounded=0;dashed=1;" edge="1" parent="1" target="C3NNI_HML-tkmLwJej4Z-6">
          <mxGeometry width="50" height="50" relative="1" as="geometry">
            <mxPoint x="479.953125" y="430" as="sourcePoint" />
            <mxPoint x="535" y="330" as="targetPoint" />
          </mxGeometry>
        </mxCell>
        <mxCell id="C3NNI_HML-tkmLwJej4Z-8" value="Jellyfin?" style="sketch=0;pointerEvents=1;shadow=0;dashed=0;html=1;strokeColor=none;fillColor=#434445;aspect=fixed;labelPosition=center;verticalLabelPosition=bottom;verticalAlign=top;align=center;outlineConnect=0;shape=mxgraph.vvd.datastore;" vertex="1" parent="1">
          <mxGeometry x="565" y="440" width="50" height="39" as="geometry" />
        </mxCell>
        <mxCell id="C3NNI_HML-tkmLwJej4Z-9" value="" style="shape=curlyBracket;whiteSpace=wrap;html=1;rounded=1;labelPosition=left;verticalLabelPosition=middle;align=right;verticalAlign=middle;" vertex="1" parent="1">
          <mxGeometry x="545" y="440" width="20" height="120" as="geometry" />
        </mxCell>
        <mxCell id="C3NNI_HML-tkmLwJej4Z-10" value="" style="sketch=0;pointerEvents=1;shadow=0;dashed=0;html=1;strokeColor=none;fillColor=#434445;aspect=fixed;labelPosition=center;verticalLabelPosition=bottom;verticalAlign=top;align=center;outlineConnect=0;shape=mxgraph.vvd.vm_group;" vertex="1" parent="1">
          <mxGeometry x="460" y="140" width="49.5" height="50" as="geometry" />
        </mxCell>
        <mxCell id="C3NNI_HML-tkmLwJej4Z-14" value="PiHole" style="fillColor=#28A8E0;verticalLabelPosition=bottom;sketch=0;html=1;strokeColor=#ffffff;verticalAlign=top;align=center;points=[[0.145,0.145,0],[0.5,0,0],[0.855,0.145,0],[1,0.5,0],[0.855,0.855,0],[0.5,1,0],[0.145,0.855,0],[0,0.5,0]];pointerEvents=1;shape=mxgraph.cisco_safe.compositeIcon;bgIcon=ellipse;resIcon=mxgraph.cisco_safe.capability.dns;" vertex="1" parent="1">
          <mxGeometry x="401.5" y="161.5" width="38.5" height="37" as="geometry" />
        </mxCell>
        <mxCell id="C3NNI_HML-tkmLwJej4Z-16" value="Proxmox" style="rounded=0;whiteSpace=wrap;html=1;" vertex="1" parent="1">
          <mxGeometry x="459.5" y="120" width="50" height="20" as="geometry" />
        </mxCell>
        <mxCell id="C3NNI_HML-tkmLwJej4Z-21" value="" style="sketch=0;pointerEvents=1;shadow=0;dashed=0;html=1;strokeColor=none;fillColor=#434445;aspect=fixed;labelPosition=center;verticalLabelPosition=bottom;verticalAlign=top;align=center;outlineConnect=0;shape=mxgraph.vvd.ethernet_port;" vertex="1" parent="1">
          <mxGeometry x="530.5" y="141.5" width="20" height="20" as="geometry" />
        </mxCell>
        <mxCell id="C3NNI_HML-tkmLwJej4Z-23" value="" style="sketch=0;pointerEvents=1;shadow=0;dashed=0;html=1;strokeColor=none;fillColor=#434445;aspect=fixed;labelPosition=center;verticalLabelPosition=bottom;verticalAlign=top;align=center;outlineConnect=0;shape=mxgraph.vvd.phone;" vertex="1" parent="1">
          <mxGeometry x="395" y="470" width="29.5" height="50" as="geometry" />
        </mxCell>
        <mxCell id="C3NNI_HML-tkmLwJej4Z-25" value="" style="endArrow=none;html=1;rounded=0;dashed=1;" edge="1" parent="1" source="C3NNI_HML-tkmLwJej4Z-23">
          <mxGeometry width="50" height="50" relative="1" as="geometry">
            <mxPoint x="485" y="380" as="sourcePoint" />
            <mxPoint x="458.296875" y="430" as="targetPoint" />
          </mxGeometry>
        </mxCell>
        <mxCell id="C3NNI_HML-tkmLwJej4Z-26" value="PC" style="sketch=0;pointerEvents=1;shadow=0;dashed=0;html=1;strokeColor=none;fillColor=#434445;aspect=fixed;labelPosition=center;verticalLabelPosition=bottom;verticalAlign=top;align=center;outlineConnect=0;shape=mxgraph.vvd.monitor;" vertex="1" parent="1">
          <mxGeometry x="300" y="310" width="50" height="46.5" as="geometry" />
        </mxCell>
        <mxCell id="C3NNI_HML-tkmLwJej4Z-27" value="TV" style="sketch=0;pointerEvents=1;shadow=0;dashed=0;html=1;strokeColor=none;fillColor=#505050;labelPosition=center;verticalLabelPosition=bottom;verticalAlign=top;outlineConnect=0;align=center;shape=mxgraph.office.devices.tv;" vertex="1" parent="1">
          <mxGeometry x="496.5" y="570" width="59" height="45" as="geometry" />
        </mxCell>
        <mxCell id="C3NNI_HML-tkmLwJej4Z-28" value="" style="editableCssRules=.*;html=1;shape=image;verticalLabelPosition=bottom;labelBackgroundColor=#ffffff;verticalAlign=top;aspect=fixed;imageAspect=0;image=data:image/svg+xml,PHN2ZyB4bWxucz0iaHR0cDovL3d3dy53My5vcmcvMjAwMC9zdmciIHhtbG5zOnY9Imh0dHBzOi8vdmVjdGEuaW8vbmFubyIgd2lkdGg9IjE5LjcwNjUzMTUyNDY1ODIwMyIgaGVpZ2h0PSIxOS45ODM4MjE4Njg4OTY0ODQiIGZpbGwtcnVsZT0iZXZlbm9kZCIgdmlld0JveD0iLTAuMDAwMjA5NTQ2OTY4MTA4MDQzMDcgMC4wMDAxNzcyNDA4Mjg2MzQyMzk3MyAxOS43MDY1MzE1MjQ2NTgyMDMgMTkuOTgzODIxODY4ODk2NDg0Ij4mI3hhOwk8c3R5bGUgdHlwZT0idGV4dC9jc3MiPiYjeGE7CS5zdDB7ZmlsbDojNDI4NWY0O30mI3hhOwkuc3Qxe2ZpbGw6IzY2OWRmNjt9JiN4YTsJPC9zdHlsZT4mI3hhOwk8cGF0aCBjbGFzcz0ic3QwIiBkPSJNMTAuMzQ1IDEwLjM5NnYtNC40M2gwYTEuMTQgMS4xNCAwIDAgMC0uNS0yLjE2NCAxLjE0IDEuMTQgMCAwIDAtLjUgMi4xNjR2NC40MmgtNC4yN3YtMi44MmExLjE0IDEuMTQgMCAwIDAtLjUzLTIuMTUgMS4xNCAxLjE0IDAgMCAwLS41MiAyLjE1djIuODNoLS4yMmEzLjgyIDMuODIgMCAwIDEtMi43MjItNi40ODUgMy44MiAzLjgyIDAgMCAxIDQuMTIyLS44OTUgNS4yMiA1LjIyIDAgMCAxIDkuNDQtLjA1IDQgNCAwIDAgMSAxLjIzLS4yaDBhMy44MyAzLjgzIDAgMSAxIDAgNy42NmgtLjI1di0yLjg2YTEuMTQgMS4xNCAwIDAgMC0uNTMtMi4xNDkgMS4xNCAxLjE0IDAgMCAwLS41MyAyLjE0OXYyLjgzeiIvPiYjeGE7CTxwYXRoIGNsYXNzPSJzdDEiIGQ9Ik01LjA3NSAxMy4zNTZhMiAyIDAgMCAxIDEuNTQgMiAyLjA3IDIuMDcgMCAwIDEtNC4xMS4zNTQgMi4wNyAyLjA3IDAgMCAxIDEuNTItMi4zNTR2LTIuOTZoMXptLS41MyAzYTEgMSAwIDEgMCAwLTIgMSAxIDAgMSAwIDAgMnptMTEuMDgtM2EyLjA3IDIuMDcgMCAwIDEtLjUzIDQuMDcxIDIuMDcgMi4wNyAwIDAgMS0uNTMtNC4wNzF2LTIuOTVoMS4wNnptLS41MyAzYTEgMSAwIDAgMCAuMzktMS45NCAxIDEgMCAwIDAtMS4yNjggMS4zMDcgMSAxIDAgMCAwIC44NzguNjMzem0tNC43NS0uNDNoMGEyLjA2IDIuMDYgMCAwIDEtLjUgNC4wNTggMi4wNiAyLjA2IDAgMCAxLS41LTQuMDU4di01LjVoMS4wNnptLS41NCAzYTEgMSAwIDAgMCAuNTUtMS44MzIgMSAxIDAgMCAwLTEuNDggMS4yMTIgMSAxIDAgMCAwIC45My42eiIvPiYjeGE7PC9zdmc+;" vertex="1" parent="1">
          <mxGeometry x="449.5" y="475" width="40" height="40" as="geometry" />
        </mxCell>
        <mxCell id="C3NNI_HML-tkmLwJej4Z-29" value="" style="endArrow=none;html=1;rounded=0;dashed=1;" edge="1" parent="1" source="C3NNI_HML-tkmLwJej4Z-28">
          <mxGeometry width="50" height="50" relative="1" as="geometry">
            <mxPoint x="485" y="450" as="sourcePoint" />
            <mxPoint x="469.5" y="430" as="targetPoint" />
          </mxGeometry>
        </mxCell>
        <mxCell id="C3NNI_HML-tkmLwJej4Z-30" value="" style="endArrow=classic;html=1;rounded=0;" edge="1" parent="1" source="C3NNI_HML-tkmLwJej4Z-6" target="C3NNI_HML-tkmLwJej4Z-27">
          <mxGeometry width="50" height="50" relative="1" as="geometry">
            <mxPoint x="485" y="450" as="sourcePoint" />
            <mxPoint x="535" y="400" as="targetPoint" />
          </mxGeometry>
        </mxCell>
        <mxCell id="C3NNI_HML-tkmLwJej4Z-47" value="Nextcloud" style="rounded=0;whiteSpace=wrap;html=1;fillColor=none;fontSize=11;" vertex="1" parent="1">
          <mxGeometry x="565" y="515" width="54.5" height="25" as="geometry" />
        </mxCell>
        <mxCell id="C3NNI_HML-tkmLwJej4Z-48" value="Guacamole" style="rounded=0;whiteSpace=wrap;html=1;fillColor=none;align=center;verticalAlign=middle;" vertex="1" parent="1">
          <mxGeometry x="320" y="114.25" width="60" height="31.5" as="geometry" />
        </mxCell>
        <mxCell id="C3NNI_HML-tkmLwJej4Z-50" value="" style="sketch=0;pointerEvents=1;shadow=0;dashed=0;html=1;strokeColor=none;fillColor=#434445;aspect=fixed;labelPosition=center;verticalLabelPosition=bottom;verticalAlign=top;align=center;outlineConnect=0;shape=mxgraph.vvd.switch;" vertex="1" parent="1">
          <mxGeometry x="414" y="265" width="50" height="50" as="geometry" />
        </mxCell>
        <mxCell id="C3NNI_HML-tkmLwJej4Z-51" value="OpenWRT" style="sketch=0;pointerEvents=1;shadow=0;dashed=0;html=1;strokeColor=none;fillColor=#434445;aspect=fixed;labelPosition=center;verticalLabelPosition=bottom;verticalAlign=top;align=center;outlineConnect=0;shape=mxgraph.vvd.physical_upstream_router;" vertex="1" parent="1">
          <mxGeometry x="330" y="161.5" width="40" height="40" as="geometry" />
        </mxCell>
        <mxCell id="C3NNI_HML-tkmLwJej4Z-52" value="" style="endArrow=none;html=1;rounded=0;entryX=0.513;entryY=1;entryDx=0;entryDy=0;entryPerimeter=0;" edge="1" parent="1" source="C3NNI_HML-tkmLwJej4Z-50" target="C3NNI_HML-tkmLwJej4Z-38">
          <mxGeometry width="50" height="50" relative="1" as="geometry">
            <mxPoint x="400" y="270" as="sourcePoint" />
            <mxPoint x="530" y="340" as="targetPoint" />
          </mxGeometry>
        </mxCell>
        <mxCell id="C3NNI_HML-tkmLwJej4Z-53" value="" style="endArrow=none;html=1;rounded=0;" edge="1" parent="1" source="C3NNI_HML-tkmLwJej4Z-26" target="C3NNI_HML-tkmLwJej4Z-50">
          <mxGeometry width="50" height="50" relative="1" as="geometry">
            <mxPoint x="400" y="270" as="sourcePoint" />
            <mxPoint x="530" y="340" as="targetPoint" />
          </mxGeometry>
        </mxCell>
        <mxCell id="C3NNI_HML-tkmLwJej4Z-54" value="" style="verticalLabelPosition=bottom;sketch=0;html=1;fillColor=#282828;strokeColor=none;verticalAlign=top;pointerEvents=1;align=center;shape=mxgraph.cisco_safe.iot_things_icons.icon32;" vertex="1" parent="1">
          <mxGeometry x="454" y="353.5" width="30" height="18" as="geometry" />
        </mxCell>
        <mxCell id="C3NNI_HML-tkmLwJej4Z-55" value="" style="ellipse;whiteSpace=wrap;html=1;aspect=fixed;fillColor=none;strokeWidth=2;" vertex="1" parent="1">
          <mxGeometry x="449.5" y="360" width="40" height="40" as="geometry" />
        </mxCell>
        <mxCell id="C3NNI_HML-tkmLwJej4Z-58" value="what hardware for AP?" style="rounded=0;whiteSpace=wrap;html=1;fillColor=none;" vertex="1" parent="1">
          <mxGeometry x="496.5" y="360" width="113.5" height="26.5" as="geometry" />
        </mxCell>
        <mxCell id="C3NNI_HML-tkmLwJej4Z-60" value="" style="endArrow=none;html=1;rounded=0;" edge="1" parent="1" source="C3NNI_HML-tkmLwJej4Z-55" target="C3NNI_HML-tkmLwJej4Z-50">
          <mxGeometry width="50" height="50" relative="1" as="geometry">
            <mxPoint x="480" y="390" as="sourcePoint" />
            <mxPoint x="530" y="340" as="targetPoint" />
          </mxGeometry>
        </mxCell>
        <mxCell id="C3NNI_HML-tkmLwJej4Z-61" value="" style="sketch=0;pointerEvents=1;shadow=0;dashed=0;html=1;strokeColor=none;fillColor=#434445;aspect=fixed;labelPosition=center;verticalLabelPosition=bottom;verticalAlign=top;align=center;outlineConnect=0;shape=mxgraph.vvd.vm_group;" vertex="1" parent="1">
          <mxGeometry x="405.35" y="110.75" width="34.65" height="35" as="geometry" />
        </mxCell>
        <mxCell id="C3NNI_HML-tkmLwJej4Z-63" value="Or route UPC -&amp;gt; Hardware OpenWrt -&amp;gt; Switch?" style="rounded=0;whiteSpace=wrap;html=1;fillColor=none;" vertex="1" parent="1">
          <mxGeometry x="670" y="343.25" width="120" height="60" as="geometry" />
        </mxCell>
      </root>
    </mxGraphModel>
  </diagram>
</mxfile>
